# xmcd
#
# Track frame offsets:
#	150
#	11833
#	27456
#	39483
#	53558
#	66304
#	82259
#	104189
#	122109
#	137568
#	153034
#	167783
#
# Disc length: 2470 seconds
#
# Revision: 1
# Processed by: cddbd v1.5.1PL2 Copyright (c) Steve Scherf et al.
# Submitted via: audiograbber 1.83.01
#
DISCID=a509a40c
DTITLE=May and Mackie - Lomg way down the road
DYEAR=2006
DGENRE=Country
TTITLE0=The Time Has Come
TTITLE1=Coming Home
TTITLE2=Easier Done Than Said
TTITLE3=Kindly Keep It Country
TTITLE4=Long Way Down The Road
TTITLE5=That's The Kind Of Mood I'm In
TTITLE6=Baby I Need You
TTITLE7=What If We Fly?
TTITLE8=Lucky Town
TTITLE9=The Last Thing On My Mind
TTITLE10=When I Called To Say Hello
TTITLE11=You'll Never Be The Sun
EXTD=
EXTT0=
EXTT1=
EXTT2=
EXTT3=
EXTT4=
EXTT5=
EXTT6=
EXTT7=
EXTT8=
EXTT9=
EXTT10=
EXTT11=
PLAYORDER=
